<?xml version="1.0" encoding="utf-8"?>
<!-- Svg Vector Icons : http://www.onlinewebfonts.com/icon -->
<!DOCTYPE svg PUBLIC "-//W3C//DTD SVG 1.1//EN" "http://www.w3.org/Graphics/SVG/1.1/DTD/svg11.dtd">
<svg version="1.1" xmlns="http://www.w3.org/2000/svg" xmlns:xlink="http://www.w3.org/1999/xlink" x="0px" y="0px" viewBox="0 0 256 256" enable-background="new 0 0 256 256" xml:space="preserve">
<metadata> Svg Vector Icons : http://www.onlinewebfonts.com/icon </metadata>
<g><g><g><path fill="#000000" d="M109.8,11.3c-47.3,6-90.9,49.8-98.5,99.6c-9.8,62.3,36.2,124,99.8,133.8c75.9,12,145.3-57.9,133.6-133.8c-1.6-10.6-1.6-21.5-0.3-28c6.5-29.4-18.5-62.8-53-70.4C179.4,9.9,127.2,9.1,109.8,11.3z M113.6,30c-3.8,3-10.1,11.7-13.9,19.6c-8.2,16.3-9,14.4-2.7-4.9c5.7-17.1,8.4-20.1,16.9-20.1h6.8L113.6,30z M203.6,31.7c18.8,9.2,27.7,22.3,27.7,40c0,28.3-24.8,48.1-60.4,48.1c-17.4,0-19,0.5-29.1,9.5c-5.7,5.2-11.2,9.5-12.2,9.5c-0.8,0-1.6-6-1.6-13.6c0-11.4-1.6-15.5-9.5-26.1c-5.2-6.8-9.8-13.9-9.8-15.5c-0.3-1.9-0.8-6.3-1.1-10.1c-1.4-10.3,7.9-28.3,18-36.2c12-9,23.9-12.2,46.2-12.5C185.7,24.6,192.5,26,203.6,31.7z M81.8,48.3L76.9,64l-17.1,0.8l-17.4,0.8l8.2-8.7c7.9-8.2,30.2-24.2,34.3-24.2C85.8,32.8,84.5,39.8,81.8,48.3z M72.5,91.5c-0.8,7.1-1.6,16.3-1.6,20.4v7.9H47.5H23.8l1.4-10.3c0.8-5.4,3.5-14.7,5.7-20.4L35.3,79h19.6h19.6L72.5,91.5z M98.4,92.3c3,7.3,7.9,15.5,10.9,18.2c8.2,7.3,6.3,9.2-10.1,9.2H83.7l1.9-18.2C88.3,74.4,89.9,73.3,98.4,92.3z M231.4,115.7c0,2.4-2.4,4.1-5.7,4.1c-4.9,0-5.2-0.5-2.4-4.1c1.9-2.2,4.4-4.1,5.7-4.1C230.3,111.6,231.4,113.5,231.4,115.7z M72.2,148.9c0.8,7.3,2.4,16.3,3,20.4l1.6,7.6H55.9H35.3l-3.8-9.2c-2.2-5.2-4.6-14.1-5.7-20.4l-1.9-11.2h23.4h23.4L72.2,148.9z M114.4,148.1c0,6.8,1.4,13.1,2.7,13.9c1.6,0.8,2.7,4.6,2.7,8.4c0,6-0.8,6.5-14.7,6.5h-15l-1.6-13.1c-0.8-7.1-2.4-16.1-3-20.4c-1.6-7.3-1.4-7.3,13.6-7.3h15.2L114.4,148.1L114.4,148.1z M170.4,143.5c-0.5,4.4-2.2,13.3-3,20.4l-1.6,13.1h-15h-14.7v-12c0-10.3,1.4-13.1,9.5-20.4c6.3-5.4,12.5-8.4,18-8.4C171.3,136.1,171.8,136.7,170.4,143.5z M230.3,147.3c-1.1,6.3-3.5,15.2-5.7,20.4l-3.8,9.3h-20.7h-20.9l1.6-7.6c0.8-4.1,2.2-13.1,3.3-20.4l1.6-12.8h23.1h23.4L230.3,147.3z M83.1,205.8c2.4,8.4,3.8,15.8,3,16.6c-2.4,2.4-24.2-11.7-34-22l-9.5-9.8h18h18.2L83.1,205.8z M119.9,210.9c0,19.9-0.3,20.4-6.5,20.4c-8.2,0-9-1.1-15.2-23.1l-5.2-17.7h13.6h13.3L119.9,210.9L119.9,210.9z M157.9,208.2c-6.3,22-7.1,23.1-15.2,23.1c-6.3,0-6.5-0.5-6.5-20.4v-20.4h13.3h13.6L157.9,208.2z M205.3,199c-8.2,8.7-30.2,24.2-34.5,24.2c-1.1,0-1.6-2.2-0.8-4.9c0.8-2.4,2.7-9.8,4.4-16.3l3-11.4h18h18.2L205.3,199z"/></g></g></g>
</svg>